<svg xmlns="http://www.w3.org/2000/svg" viewBox="0 0 1728 1728">
    <defs>
        <style>.cls-1{fill:#0086a7;}.cls-2,.cls-3{fill:#fff;}.cls-3{opacity:0.12;}</style>
    </defs>
    <title>Asset 1</title>
    <g id="Layer_2" data-name="Layer 2">
        <g id="Layer_1-2" data-name="Layer 1">
            <circle class="cls-1" cx="864" cy="864" r="864" />
            <path class="cls-2"
                d="M628.42,859.89a50.63,50.63,0,0,0,50.83,50.83,51,51,0,0,0,50.65-50.83v-99.2a17.41,17.41,0,0,1,17.38-17.39h.38a16.13,16.13,0,0,1,12.09,5.1,16.77,16.77,0,0,1,5.11,12.29V941.53q0,35-26.46,60.65-25.71,25.14-59.15,25.14a92.5,92.5,0,0,1-48.75-13.23,83.07,83.07,0,0,1-32.12-34.2,16,16,0,0,1-.57-14.18,15.83,15.83,0,0,1,10.2-9.82l.76-.38a16.82,16.82,0,0,1,11.9.19,17.36,17.36,0,0,1,8.88,8.12,51.32,51.32,0,0,0,20.22,20.6,57.52,57.52,0,0,0,29.48,7.94q20.22,0,35.34-14.93,15.3-15.12,15.31-35.9V928.87a83.13,83.13,0,0,1-50.65,16.62q-35.52,0-60.66-25.13-25.12-24.95-25.13-60.47v-99.2a16.76,16.76,0,0,1,5.1-12.29,16.54,16.54,0,0,1,12.1-5.1h.56a16.54,16.54,0,0,1,12.1,5.1,16.76,16.76,0,0,1,5.1,12.29Z" />
            <path class="cls-2"
                d="M890.48,743.3q42.71,0,72.94,30.24t30.23,72.94q0,42.71-30.23,72.94t-72.94,30.23q-42.71,0-72.94-30.23T787.3,846.48q0-42.71,30.24-72.94T890.48,743.3Zm0,35.34q-28.35,0-48.38,20-19.83,20-19.84,48.37,0,28.15,19.84,48.19,20,20,48.38,20t48.18-20q20-20,20-48.19,0-28.35-20-48.37Q918.83,778.65,890.48,778.64Z" />
            <path class="cls-2"
                d="M1035.75,665.83A17.09,17.09,0,0,1,1053,683V790.35h116V683a17.1,17.1,0,0,1,17.2-17.19h.57A17.09,17.09,0,0,1,1203.93,683V932.46a16.13,16.13,0,0,1-5.1,12.09,16.52,16.52,0,0,1-12.09,5.1h-.57a16.52,16.52,0,0,1-12.09-5.1,16.14,16.14,0,0,1-5.11-12.09V825.12H1053V932.46a16.13,16.13,0,0,1-5.1,12.09,16.54,16.54,0,0,1-12.1,5.1h-.56a16.54,16.54,0,0,1-12.1-5.1,16.13,16.13,0,0,1-5.1-12.09V683a17.09,17.09,0,0,1,17.2-17.19Z" />
            <path class="cls-2"
                d="M1258.69,743.3a16.15,16.15,0,0,1,12.1,5.1,16.76,16.76,0,0,1,5.1,12.29V932.46a17.42,17.42,0,0,1-17.2,17.19h-.37a16.76,16.76,0,0,1-12.29-5.1,16.13,16.13,0,0,1-5.1-12.09V760.69a17.41,17.41,0,0,1,17.39-17.39Z" />
            <path class="cls-2"
                d="M1399.63,743.3a16.75,16.75,0,0,1,12.28,5.1,17.1,17.1,0,0,1,4.91,12.29v.37a16.47,16.47,0,0,1-4.91,12.1,16.75,16.75,0,0,1-12.28,5.1h-10.77a41.18,41.18,0,0,0-30.24,12.47A42.13,42.13,0,0,0,1346.15,821V932.46a16.13,16.13,0,0,1-5.1,12.09,16.54,16.54,0,0,1-12.1,5.1h-.56a16.53,16.53,0,0,1-12.1-5.1,16.13,16.13,0,0,1-5.1-12.09V821q.38-32.33,22.68-55,22.67-22.68,55-22.68Z" />
            <path class="cls-2"
                d="M1619.17,803.58a17.05,17.05,0,0,1-8.51,22.87q-26.46,11.89-69.54,31.36l-69.35,31.37q20.42,26.09,53.67,26.08a68.28,68.28,0,0,0,64.44-45.92q4.15-11.72,16.62-11.72a16.62,16.62,0,0,1,14.18,7.37,16.27,16.27,0,0,1,2.08,15.69,99.43,99.43,0,0,1-37,49.51,100.7,100.7,0,0,1-60.28,19.46q-42.7,0-72.94-30.23t-30.24-72.94q0-42.71,30.24-72.94t72.94-30.24a103.31,103.31,0,0,1,93.73,60.28Zm-93.73-24.94q-28.35,0-48.38,20-19.83,20-19.84,48.37a65.12,65.12,0,0,0,.76,10l119.61-54Q1557.19,778.64,1525.44,778.64Z" />
            <path class="cls-2"
                d="M319,649.17c-118.65,0-214.83,96.18-214.83,214.83S200.3,1078.83,319,1078.83,533.78,982.65,533.78,864,437.6,649.17,319,649.17Zm37.44,202.75L362,730.19c.85-18.63,20.64-30.4,37.28-22a175.91,175.91,0,0,1,39.08,27c20.39,18.59,21.29,50.42,2.46,70.58L386,864.38C375.14,876,355.66,867.82,356.39,851.92Zm-91,131.81h0a53,53,0,0,1-76.55-3.15,175.26,175.26,0,0,1,51-271.58c35.74-18.52,78.18,8.92,76.8,49.16l-4.09,119.89A154,154,0,0,1,265.37,983.73Zm59.29,56.16-1.7,0c-19.82.3-30-23.61-16.19-37.8L470,835a14.19,14.19,0,0,1,24.24,8.12,176.56,176.56,0,0,1,1.23,27.13C492.57,962.72,417.15,1037.62,324.66,1039.89Z" />
            <path class="cls-3"
                d="M1573.33,370.58C1453.77,199,1273.57,72.89,1063.78,23.23a149.78,149.78,0,0,0-4.07,28.64L1028,745.39c-4.14,90.62,106.83,137.34,168.75,71l312-334.1A285,285,0,0,0,1573.33,370.58Z" />
            <path class="cls-3"
                d="M2.93,866.93c0,291.67,144.53,549.57,365.87,706a300.36,300.36,0,0,0,140.66-76.54h0A877.35,877.35,0,0,0,777.83,894.27l23.34-683c2.62-76.65-22.67-145.15-65.11-198.44C321,75.85,2.93,434.24,2.93,866.93Z" />
            <path class="cls-3"
                d="M1696.78,633.07A81.89,81.89,0,0,0,1675.16,649L745.31,1601.25c-32.17,32.94-41.54,75.09-33.72,113.35A869.86,869.86,0,0,0,864,1728c477.17,0,864-386.83,864-864A864.82,864.82,0,0,0,1696.78,633.07Z" />
        </g>
    </g>
</svg>